inDegrees=yes
name=ik_S42_A09_T01
DataType=double
version=3
OpenSimVersion=4.3-2021-08-27-4bc7ad9
endheader
time	pelvis_tilt	pelvis_list	pelvis_rotation	pelvis_tx	pelvis_ty	pelvis_tz	hip_flexion_r	hip_adduction_r	hip_rotation_r	knee_angle_r	knee_angle_r_beta	ankle_angle_r	subtalar_angle_r	mtp_angle_r	hip_flexion_l	hip_adduction_l	hip_rotation_l	knee_angle_l	knee_angle_l_beta	ankle_angle_l	subtalar_angle_l	mtp_angle_l	lumbar_extension	lumbar_bending	lumbar_rotation	arm_flex_r	arm_add_r	arm_rot_r	elbow_flex_r	pro_sup_r	wrist_flex_r	wrist_dev_r	arm_flex_l	arm_add_l	arm_rot_l	elbow_flex_l	pro_sup_l	wrist_flex_l	wrist_dev_l
0	0	0	0	0	0.9399999999999999	0	0	0	0	0	0	0	0	0	0	0	0	0	0	0	0	0	0	0	0	0	0	0	0	89.99999999963507	0	0	0	0	0	0	89.99999999869995	0	0
0.02	-10.21125809250475	0.8059934336059856	23.71494205082094	0	0.9399999999999999	0	3.717238484567141	-1.734924451596342	-1.250850022359122	5.72282882815014	0.09988220557926869	0	0	0	3.717238484567141	-1.734924451596342	-1.250850022359122	5.72282882815014	0.09988220557926869	0	0	0	-6.073041573782571	-4.637865443435307	2.210119246525271	25.74468430742847	-8.558676886640281	-6.350463682153569	55.73923560856453	112.4251355182512	0	0	22.27267344784368	-3.592312130731901	-4.150756870236686	50.33427802980422	107.1728208145993	0	0
0.04	-9.640248992316792	0.227216876004788	24.90299645083147	0	0.9399999999999999	0	35.10960020745798	-15.43780456318439	-11.17239403091947	48.65002633385473	0.849103140707711	0	0	0	35.10960020745798	-15.43780456318439	-11.17239403091947	48.65002633385473	0.849103140707711	0	0	0	-6.427447323439518	-3.766009017709743	1.115449189035423	25.73033492350144	-8.548009719485689	-6.377607168632622	55.65385585113316	112.424044497825	0	0	22.23027369783777	-3.59336495221431	-4.19228344612042	50.33780947279988	107.2353904744335	0	0
0.06	-9.649820360447492	0.226931759772257	24.89705298271684	0	0.9399999999999999	0	35.11046228868162	-15.43621383336807	-11.1721746856523	48.65040859552189	0.8491098124324071	0	0	0	35.11046228868162	-15.43621383336807	-11.1721746856523	48.65040859552189	0.8491098124324071	0	0	0	-6.436538029175363	-3.761321528580391	1.113642395763149	25.6077062324591	-8.516594096380722	-6.423392178236226	55.69000543562168	112.4476226958472	0	0	22.25549913496679	-3.578513285153068	-4.241648615420455	50.33808169488059	107.2290572062196	0	0
0.08	-9.63760205276818	0.2229789290539445	24.89258955484182	0	0.9399999999999999	0	35.11272043023759	-15.43192863374109	-11.17158979223399	48.65138367126844	0.8491268307146408	0	0	0	35.11272043023759	-15.43192863374109	-11.17158979223399	48.65138367126844	0.8491268307146408	0	0	0	-6.4277144798875	-3.770577139226254	1.129751826707813	25.44577578699978	-8.44415367896277	-6.515358867322184	55.80300652462711	112.4860380713884	0	0	22.22717772160336	-3.594974831871431	-4.22223724386559	50.32142266218609	107.2375545330484	0	0
0.1	-9.642478971094361	0.2198388173996683	24.87696028116287	0	0.9399999999999999	0	35.12605685246604	-15.41913165586059	-11.16898338344446	48.65755669536048	0.8492345703098519	0	0	0	35.12605685246604	-15.41913165586059	-11.16898338344446	48.65755669536048	0.8492345703098519	0	0	0	-6.435888350522591	-3.763396620160455	1.132908297693256	25.3644858670559	-8.385214105480554	-6.592470900678354	55.85633774862469	112.5173442323742	0	0	22.21624749557859	-3.583974088274783	-4.275601878862902	50.32969466265897	107.2326226200426	0	0
0.12	-9.650220701253664	0.2180525430785699	24.85601714104591	0	0.9399999999999999	0	35.12695227173351	-15.41745812937328	-11.16875369502816	48.65794846968322	0.8492414080617084	0	0	0	35.12695227173351	-15.41745812937328	-11.16875369502816	48.65794846968322	0.8492414080617084	0	0	0	-6.443945046731385	-3.762494279032973	1.145154789164553	25.28940100966097	-8.335155189723313	-6.701251751946458	55.8587225668527	112.5346979934859	0	0	22.2322774438588	-3.575351806178348	-4.302925053897106	50.31458776890035	107.2183961830488	0	0
0.14	-9.639362412086516	0.216238175017818	24.84690516873132	0	0.9399999999999999	0	35.12963494116558	-15.41233130783914	-11.16805573329368	48.65909761173272	0.8492614643740454	0	0	0	35.12963494116558	-15.41233130783914	-11.16805573329368	48.65909761173272	0.8492614643740454	0	0	0	-6.435435582312174	-3.769989090899521	1.169722163316379	25.18158908242403	-8.317276778404153	-6.859749258869052	55.88171626418402	112.6162630549093	0	0	22.16610083462253	-3.570968529077724	-4.301252734676954	50.31559928213745	107.2439833545017	0	0
0.16	-9.639074151232878	0.2105540304086329	24.83491377701527	0	0.9399999999999999	0	35.14784452085667	-15.3852630917314	-11.16383514367428	48.66716502758419	0.849402267342781	0	0	0	35.14784452085667	-15.3852630917314	-11.16383514367428	48.66716502758419	0.849402267342781	0	0	0	-6.440634397487998	-3.764161096924463	1.165307910229748	25.19390349218776	-8.309306511789883	-6.847291717961591	55.90932776109324	112.5955250168547	0	0	22.13552660417825	-3.557125680028993	-4.307830999668488	50.35415264140509	107.2208000302205	0	0
0.18	-9.618586907565865	0.2180638465181179	24.80676644475027	0	0.9399999999999999	0	35.15078889751555	-15.37966181890652	-11.16307092121387	48.6684277920218	0.8494243067398946	0	0	0	35.15078889751555	-15.37966181890652	-11.16307092121387	48.6684277920218	0.8494243067398946	0	0	0	-6.419647537147028	-3.767673786005789	1.195229538893246	24.89952897505674	-8.292788489757234	-6.985192842412013	56.11140315451459	112.4830623579388	0	0	22.06570722941842	-3.545544557499663	-4.30696859406242	50.33943490418316	107.2518561643099	0	0
